<?xml version="1.0" standalone="no"?><!DOCTYPE svg PUBLIC "-//W3C//DTD SVG 1.1//EN" "http://www.w3.org/Graphics/SVG/1.1/DTD/svg11.dtd"><svg t="1594952106539" class="icon" viewBox="0 0 1024 1024" version="1.1" xmlns="http://www.w3.org/2000/svg" p-id="2414" xmlns:xlink="http://www.w3.org/1999/xlink" width="200" height="200"><defs><style type="text/css"></style></defs><path d="M618.047232 165.227224c12.588341-16.87982 21.362032-83.254707 12.779073-122.73632-2.574888-11.825411-6.484903-19.645441-11.157847-22.220328-15.926158-8.678326-67.04245 22.697159-127.599997 78.200297l21.457398 11.539312C586.385649 59.847555 624.246036 46.973116 612.325259 163.129167l10.394918 5.626607-4.672945-3.52855z" fill="#FFC239" p-id="2415"></path><path d="M619.763824 20.365942c4.577578 2.574888 8.582959 10.394918 11.157847 22.220328 8.582959 39.481613-0.190732 105.761134-12.779072 122.73632l4.672944 3.52855 4.672945 3.52855c15.449327-20.694469 23.555455-92.314497 14.877129-132.177575-3.337818-15.544693-9.059791-25.653512-16.975186-29.944992-14.018834-7.724664-38.05112 0.381465-73.241254 24.69985-29.182062 20.122272-58.173392 46.252615-69.331239 56.4568l7.915396 8.582959c0.476831-0.476831 0.953662-0.953662 1.525859-1.335127 60.462181-55.69387 111.578473-87.069355 127.504631-78.295663z" fill="" p-id="2416"></path><path d="M513.621226 110.105551c-0.381465 0.286099-0.76293 0.476831-1.144395 0.76293l98.894766 60.652913c0.381465-2.860986 0.667564-5.626607 0.953662-8.392227C624.246036 46.973116 586.385649 59.847555 513.621226 110.105551z" fill="#FEFEFE" p-id="2417"></path><path d="M280.450827 89.411082l-5.912705 1.811958c-6.580269-21.266666-43.010163-56.933631-73.431986-72.001493-12.492974-6.198804-22.983258-8.392227-29.372795-6.008071-10.299551 3.719282-18.882511 27.656203-22.887892 63.895364C145.221533 109.914819 145.79373 145.009586 147.891787 165.227224l132.55904-75.816142zM162.768917 148.824235c0-153.634974 63.704632-81.728847 94.889385-47.587742 0 0-40.626008 10.490284-94.889385 47.587742zM142.074448 168.469675z" fill="#FFC239" p-id="2418"></path><path d="M148.845449 77.10884c4.100747-36.239162 12.588341-60.176082 22.887892-63.895364 6.389536-2.288789 16.87982-0.190732 29.372795 6.008071 30.421823 15.163228 66.851717 50.830193 73.431986 72.001493l5.912705-1.811958 5.912706-1.811958c-7.533931-24.223019-46.252615-62.75097-79.726157-79.344692-16.021524-7.915396-29.182062-10.204185-39.100149-6.580269-15.640059 5.626607-26.130343 30.517189-30.99402 74.004184-3.910015 35.2855-3.051719 73.145888-0.572197 93.554258l6.103438-0.76293 6.103438-0.762929-0.286099-2.574888C145.698364 145.009586 145.126167 109.914819 148.845449 77.10884z" fill="" p-id="2419"></path><path d="M162.768917 148.824235c54.263377-37.097458 94.889385-47.587742 94.889385-47.587742C226.473549 67.095388 162.768917-4.810739 162.768917 148.824235z" fill="#FEFEFE" p-id="2420"></path><path d="M653.714197 728.173998c32.51988-39.100149 43.486995-121.591926 36.429895-158.975483-2.479522-13.446636-11.157847-21.457399-14.495665-22.506427-0.095366 0.381465-0.190732 0.858296-0.190733 1.621226-0.381465 5.721973-0.476831 12.874439-0.667563 21.266666-0.381465 18.882511-0.953662 44.726755-4.577578 72.573691-2.860986 21.648131-11.34858 42.628699-24.509118 60.557547-14.591031 19.836173-34.236472 35.476232-58.459491 46.252615l-2.479521-5.626607 4.577578 40.053811c8.487593-5.245142 39.290881-24.985949 64.372196-55.217039zM590.104931 789.971306z" fill="#FFC239" p-id="2421"></path><path d="M702.255601 566.909726c-3.337818-17.738116-16.593722-33.282809-27.942301-32.710612-4.959043 0.286099-10.490284 3.910015-11.062481 13.160538-0.381465 5.912705-0.572197 13.255904-0.76293 21.838863-0.381465 19.645441-0.953662 44.059192-4.482212 71.238564-2.574888 19.645441-10.299551 38.623318-22.220329 54.835574-13.35127 18.119581-31.375485 32.329147-53.500447 42.3426l2.479522 5.626607 2.479521 5.626607c24.127653-10.776382 43.773093-26.416442 58.459491-46.252615 13.160538-17.928849 21.648131-38.81405 24.509118-60.557547 3.623916-27.846935 4.196114-53.69118 4.577578-72.573691 0.190732-8.392227 0.381465-15.544693 0.667563-21.266666 0.095366-0.76293 0.190732-1.239761 0.190733-1.621226 3.337818 1.049028 12.016143 9.155157 14.495665 22.506427 7.0571 37.383557-3.910015 119.779967-36.429895 158.975482-25.081315 30.231091-55.979969 49.971897-64.372196 55.121673-1.430493 0.858296-2.193423 1.335127-2.288789 1.335127l3.051719 5.340508 3.051719 5.340509c1.621226-0.858296 39.386247-22.315695 70.094169-59.317787 35.2855-42.3426 46.729446-128.362927 39.004782-168.988935z" fill="" p-id="2422"></path><path d="M582.475634 757.069961c-3.147085-13.923468-11.539312-31.75695-33.950373-38.718684H256.895372c-3.52855 2.002691-14.686397 8.773692-24.604484 20.789836-15.544693 18.882511-21.075934 41.388938-16.402989 66.947083 1.335127 3.147085 2.193423 6.484903 2.956353 9.727354 1.716592 7.152466 3.051719 11.634678 7.343198 13.923468 7.343199 4.005381 23.173991 1.907324 47.206277-6.198804 30.421823-10.299551 85.638862-15.735426 151.346185-14.781764 58.268758 0.76293 112.436769 6.675635 134.752464 14.591031 1.144395 0.381465 4.577578 1.621226 9.536621-2.76562 10.871749-9.631988 19.168609-38.146486 13.446637-63.5139z" fill="#FFC239" p-id="2423"></path><path d="M594.014946 754.495073c-5.435874-24.223019-20.694469-41.198205-42.914797-47.683108l-0.858296-0.190732H254.129752l-1.239761 0.572197c-0.667564 0.286099-15.735426 7.82003-29.277428 24.127653-12.588341 15.067862-26.130343 40.81674-19.073244 77.6281l0.095367 0.667563 0.286098 0.667564c1.049028 2.384155 1.811958 5.245142 2.574888 8.392227 1.811958 7.343199 4.005381 16.498355 13.065172 21.457398 4.196114 2.288789 9.345889 3.433184 15.735425 3.433184 10.204185 0 23.460089-2.860986 40.912107-8.773692 29.182062-9.918086 82.968608-15.067862 147.340804-14.1142 57.124363 0.76293 109.766515 6.389536 130.937815 13.923468 7.152466 2.574888 14.781763 0.76293 21.266666-5.05441 15.640059-13.923468 23.364723-47.587742 17.261285-75.053212z m-25.081315 66.184154c-4.959043 4.386846-8.392227 3.147085-9.536622 2.765621-22.315695-7.915396-76.388339-13.828101-134.752463-14.591032-65.707323-0.953662-120.924362 4.482212-151.346185 14.781764-24.032286 8.106128-39.863078 10.204185-47.206277 6.198804-4.29148-2.384155-5.531241-6.866368-7.343198-13.923468-0.76293-3.242451-1.621226-6.580269-2.956353-9.727354-4.672945-25.558146 0.858296-48.064573 16.402989-66.947083 9.918086-12.016143 21.075934-18.882511 24.604484-20.789835h291.534522c22.411061 6.961734 30.898654 24.890582 33.950373 38.718683 5.912705 25.272047-2.384155 53.786546-13.35127 63.5139z" fill="" p-id="2424"></path><path d="M543.184753 522.659802l-287.529142 5.912705s-56.361434 194.356348 0 273.224209c23.173991 32.424513 43.391628 46.63408 59.603885 46.63408 23.173991 0 38.241853-28.99133 42.533333-74.862479l83.540805-0.858296c6.866368 50.257996 29.086696 79.058593 53.500447 79.058593 18.501046 0 38.432585-16.689088 53.69118-53.214349 37.383557-89.358144-5.340508-275.894463-5.340508-275.894463z" fill="#FFC239" p-id="2425"></path><path d="M572.080716 625.750682c-6.008072-57.887293-16.498355-103.949176-16.975186-105.8565l-2.193423-9.631988-9.918087 0.190732-287.624508 5.81734-8.964424 0.190732-2.479521 8.582959c-0.572197 2.002691-14.400299 50.257996-21.552765 109.003585-4.196114 34.808669-5.054409 65.993422-2.670254 92.791329 3.147085 34.617936 11.825411 62.178773 26.034977 81.919579 24.509118 34.331838 47.969207 51.783855 69.617337 51.783856 11.062481 0 26.893273-4.577578 39.004783-26.511808 6.866368-12.302242 11.730045-28.609865 14.400298-48.446038l62.27414-0.667564c4.005381 21.362032 11.062481 39.57698 20.503736 53.023616C463.267864 854.6296 478.621824 863.784757 494.834081 863.784757c14.781763 0 42.819431-7.915396 64.944393-60.652913 16.307623-38.909416 20.40837-98.608667 12.302242-177.381162z m-77.246635 226.017932c-24.413751 0-46.63408-28.800597-53.500447-79.058593l-83.540805 0.858296c-4.29148 45.87115-19.359342 74.86248-42.533333 74.862479-16.212257 0-36.429895-14.209566-59.603885-46.63408-56.361434-78.867861 0-273.224209 0-273.224209l287.529142-5.912705s42.724065 186.536319 5.340508 275.894463c-15.258595 36.525261-35.190134 53.214349-53.69118 53.214349z" fill="" p-id="2426"></path><path d="M670.594017 307.895083C652.760535 205.376401 611.085499 79.206897 384.590735 79.206897c-7.247832 0-14.781763 0.190732-22.506427 0.476831C152.564732 86.931561 101.543806 203.945908 87.238874 313.52169 72.743209 424.623332 82.852028 538.013763 388.786849 538.109129h1.430493c305.45799-0.381465 298.210158-127.695363 280.376675-230.214046z" fill="#FEFEFE" p-id="2427"></path><path d="M682.705527 305.892393c-7.438565-42.914797-15.544693-66.851717-20.980568-81.15665-11.730045-30.898654-27.084005-56.266067-46.824812-77.723466-23.269357-25.176681-52.92825-44.536023-88.21375-57.696561-39.386247-14.87713-87.164722-22.315695-142.000295-22.315695-7.533931 0-15.163228 0.095366-22.983259 0.381465-51.211658 1.811958-96.03378 10.204185-133.417336 25.081315-34.141105 13.542003-62.941703 32.901345-85.734228 57.410462-19.931539 21.457399-35.762331 47.492376-47.206277 77.532734-9.441255 24.795216-16.021524 52.451419-20.217638 84.494467-7.343199 56.742899-8.678326 115.583854 31.470851 161.359638 22.124962 25.176681 54.263377 43.677727 98.227203 56.4568 47.778474 13.828101 107.954557 20.599103 184.056797 20.599103h1.430493c136.564421-0.190732 224.015242-25.272047 267.311504-76.769804 18.882511-22.506427 29.277428-49.590432 31.75695-82.968608 2.098057-28.705231-1.907324-57.696561-6.675635-84.6852z m-595.466653 7.629297C101.543806 203.945908 152.564732 86.931561 362.084308 79.683728c7.724664-0.286099 15.258595-0.476831 22.506427-0.476831 226.494763 0 268.1698 126.169504 286.003282 228.688186s25.081315 229.832581-280.376675 230.214046h-1.430493C82.852028 538.013763 72.743209 424.623332 87.238874 313.52169z" fill="" p-id="2428"></path><path d="M362.084308 79.683728C152.564732 86.931561 101.543806 203.945908 87.238874 313.52169c-0.381465 2.670254-0.667564 5.340508-0.953663 8.010762 7.629297-2.002691 17.452018 0.667564 30.51719 11.825411 79.249326 66.947084 139.711507 77.151269 188.062178 52.737518C356.171603 360.15577 292.848435 218.155474 380.489988 218.155474c82.682509 0 35.571599 160.310609 117.014347 170.896259 107.477726 13.923468 85.924961-55.69387 142.572493-55.69387 12.206876 0 24.69985 4.577578 35.857697 10.681016-1.335127-12.206876-3.242451-24.318385-5.340508-36.143796C652.188338 202.13395 608.319878 71.100769 362.084308 79.683728z" fill="#FF9640" p-id="2429"></path><path d="M281.966642 258.060583a30.421823 22.506427 29.929 1 0-52.729801-30.356504 30.421823 22.506427 29.929 1 0 52.729801 30.356504Z" fill="#FEFEFE" p-id="2430"></path><path d="M468.603366 245.338875a22.506427 30.421823 60.967 1 0 53.198053-29.528229 22.506427 30.421823 60.967 1 0-53.198053 29.528229Z" fill="#FEFEFE" p-id="2431"></path><path d="M355.313307 345.850837c-0.667564 2.670254-1.144395 5.531241-1.144395 8.487594 0 18.691778 15.163228 33.855007 33.855007 33.855006s33.855007-15.163228 33.855007-33.855006c0-2.956353-0.381465-5.721973-1.144395-8.487594 0 0-6.771001-14.87713-32.710612-14.877129-25.939611-0.095366-32.710612 14.87713-32.710612 14.877129z" fill="" p-id="2432"></path><path d="M185.37071 319.148297s0.095366-0.095366 0.190732-0.381465c0.095366-0.190732 0.286099-0.572197 0.572198-0.953662 0.476831-0.858296 1.239761-2.098057 2.288789-3.52855s2.384155-3.147085 4.005381-4.959043c1.621226-1.811958 3.623916-3.814649 5.912705-5.81734 2.288789-1.907324 4.959043-4.005381 7.915396-5.912705 1.430493-1.049028 3.051719-1.811958 4.672945-2.76562 0.76293-0.476831 1.621226-0.858296 2.479521-1.335127 0.858296-0.381465 1.716592-0.858296 2.574888-1.239761 1.811958-0.858296 3.623916-1.525859 5.531241-2.193423 0.953662-0.286099 1.907324-0.667564 2.860986-0.953662s2.002691-0.572197 2.956353-0.858296 2.002691-0.476831 3.051719-0.76293c1.049028-0.190732 2.098057-0.476831 3.147085-0.572197s2.098057-0.286099 3.147085-0.381465l1.621226-0.190732 1.621225-0.095367 3.242452-0.095366c1.049028 0 2.193423 0 3.242451 0.095366 2.193423 0 4.29148 0.381465 6.484903 0.572198 2.098057 0.286099 4.196114 0.76293 6.29417 1.23976 2.002691 0.572197 4.005381 1.144395 5.912706 1.907325 0.953662 0.381465 1.907324 0.76293 2.76562 1.239761 0.953662 0.381465 1.811958 0.76293 2.670254 1.335127l2.574888 1.430493c0.858296 0.476831 1.621226 0.858296 2.384155 1.525859 1.525859 1.144395 2.956353 2.098057 4.29148 3.147085 1.239761 1.144395 2.479522 2.288789 3.623916 3.337818 0.572197 0.572197 1.049028 1.144395 1.621226 1.716592 0.476831 0.572197 0.953662 1.144395 1.430493 1.621226 0.858296 1.144395 1.811958 2.098057 2.479522 3.147085 0.667564 1.049028 1.335127 2.002691 1.907324 2.956352 0.286099 0.476831 0.572197 0.858296 0.858296 1.335127 0.286099 0.381465 0.476831 0.858296 0.667563 1.239761 0.858296 1.621226 1.335127 2.956353 1.716592 3.814649 0.190732 0.476831 0.286099 0.76293 0.381465 1.049028 0.095366 0.190732 0.095366 0.381465 0.095366 0.381465l-0.858296 0.858296s-1.335127-1.335127-3.719282-3.52855c-0.286099-0.286099-0.572197-0.572197-0.953662-0.858296s-0.667564-0.572197-1.049029-0.858296c-0.76293-0.667564-1.621226-1.335127-2.479521-2.00269-0.858296-0.76293-1.907324-1.430493-2.860987-2.098057-0.476831-0.381465-1.049028-0.76293-1.621225-1.144395-0.572197-0.381465-1.049028-0.76293-1.716592-1.144394-1.144395-0.667564-2.479522-1.430493-3.719283-2.193423-1.335127-0.667564-2.76562-1.335127-4.100747-2.098057-0.667564-0.381465-1.430493-0.667564-2.193423-0.953662s-1.525859-0.572197-2.288789-0.953662-1.621226-0.572197-2.384156-0.76293c-0.76293-0.286099-1.621226-0.476831-2.479521-0.76293-1.621226-0.476831-3.433184-0.76293-5.149776-1.239761-0.858296-0.095366-1.811958-0.286099-2.670254-0.381465s-1.811958-0.286099-2.670254-0.381464c-1.811958-0.095366-3.623916-0.381465-5.435874-0.286099h-2.765621l-2.76562 0.190732-1.430493 0.095367-1.335127 0.190732-2.76562 0.286099c-0.953662 0.095366-1.811958 0.286099-2.765621 0.476831-0.858296 0.190732-1.811958 0.286099-2.670254 0.476831-1.811958 0.381465-3.52855 0.76293-5.245142 1.239761s-3.433184 0.953662-5.054409 1.525859c-3.337818 1.144395-6.484903 2.288789-9.345889 3.623916-2.956353 1.239761-5.626607 2.670254-8.106129 3.910015-2.479522 1.335127-4.672945 2.574888-6.675635 3.719283-2.002691 1.144395-3.623916 2.288789-4.959043 3.147085-2.670254 1.811958-4.196114 2.956353-4.196113 2.956352l-0.76293-1.144394z" fill="" p-id="2433"></path><path d="M475.95157 313.426324s0.095366-0.095366 0.190733-0.381465c0.095366-0.190732 0.286099-0.572197 0.572197-0.953662 0.476831-0.858296 1.239761-2.098057 2.288789-3.52855s2.384155-3.147085 4.005381-4.959043c1.621226-1.811958 3.623916-3.814649 5.912706-5.81734 2.288789-1.907324 4.959043-4.005381 7.915396-5.912705 1.430493-1.049028 3.051719-1.811958 4.672944-2.76562 0.76293-0.476831 1.621226-0.858296 2.479522-1.335127 0.858296-0.381465 1.716592-0.858296 2.574888-1.239761 1.811958-0.858296 3.623916-1.525859 5.53124-2.193423 0.953662-0.286099 1.907324-0.667564 2.860987-0.953662s2.002691-0.572197 2.956352-0.858296 2.002691-0.476831 3.051719-0.76293c1.049028-0.190732 2.098057-0.476831 3.147085-0.572197s2.098057-0.286099 3.147086-0.381465l1.621225-0.190732 1.621226-0.095367 3.242451-0.095366c1.049028 0 2.193423 0 3.242452 0.095366 2.193423 0 4.29148 0.381465 6.484902 0.572198 2.098057 0.286099 4.196114 0.76293 6.294171 1.23976 2.002691 0.572197 4.005381 1.144395 5.912705 1.907325 0.953662 0.381465 1.907324 0.76293 2.76562 1.239761 0.953662 0.381465 1.811958 0.76293 2.670254 1.335127l2.574888 1.430493c0.858296 0.476831 1.621226 0.858296 2.384156 1.525859 1.525859 1.144395 2.956353 2.098057 4.291479 3.147085 1.239761 1.144395 2.479522 2.288789 3.623916 3.337818 0.572197 0.572197 1.049028 1.144395 1.621226 1.716592 0.476831 0.572197 0.953662 1.144395 1.430493 1.621226 0.858296 1.144395 1.811958 2.098057 2.479522 3.147085 0.667564 1.049028 1.335127 2.002691 1.907324 2.956352 0.286099 0.476831 0.572197 0.858296 0.858296 1.335127 0.286099 0.381465 0.476831 0.858296 0.667564 1.239761 0.858296 1.621226 1.335127 2.956353 1.716592 3.814649 0.190732 0.476831 0.286099 0.76293 0.381465 1.049028 0.095366 0.190732 0.095366 0.381465 0.095366 0.381465l-0.858296 0.858296s-1.335127-1.335127-3.719283-3.52855c-0.286099-0.286099-0.572197-0.572197-0.953662-0.858296s-0.667564-0.572197-1.049028-0.858296c-0.76293-0.667564-1.621226-1.335127-2.479522-2.00269-0.858296-0.76293-1.907324-1.430493-2.860986-2.098057-0.476831-0.381465-1.049028-0.76293-1.621226-1.144395-0.572197-0.381465-1.049028-0.76293-1.716592-1.144394-1.144395-0.667564-2.479522-1.430493-3.719282-2.193423-1.335127-0.667564-2.76562-1.335127-4.100748-2.098057-0.667564-0.381465-1.430493-0.667564-2.193423-0.953662s-1.525859-0.572197-2.288789-0.953662c-0.76293-0.381465-1.621226-0.572197-2.384155-0.76293-0.76293-0.286099-1.621226-0.476831-2.479522-0.76293-1.621226-0.476831-3.433184-0.76293-5.149775-1.239761-0.858296-0.095366-1.811958-0.286099-2.670254-0.381465-0.858296-0.095366-1.811958-0.286099-2.670254-0.381464-1.811958-0.095366-3.623916-0.381465-5.435875-0.286099h-2.76562l-2.76562 0.190732-1.430494 0.095367-1.335127 0.190732-2.76562 0.286099c-0.953662 0.095366-1.811958 0.286099-2.76562 0.476831-0.858296 0.190732-1.811958 0.286099-2.670254 0.476831-1.811958 0.381465-3.52855 0.76293-5.245142 1.239761s-3.433184 0.953662-5.05441 1.525859c-3.337818 1.144395-6.484903 2.288789-9.345889 3.623916-2.956353 1.239761-5.626607 2.670254-8.106128 3.910015-2.479522 1.335127-4.672945 2.574888-6.675635 3.719283-2.002691 1.144395-3.623916 2.288789-4.959043 3.147085-2.670254 1.811958-4.196114 2.956353-4.196114 2.956352l-0.76293-1.144394z" fill="" p-id="2434"></path><path d="M390.02661 518.368322h-0.190733c-8.487593-0.095366-15.830792-3.337818-21.838863-9.727354-20.694469-22.029596-18.214947-75.816142-18.119581-78.009565l12.206875 0.667564c-0.76293 14.1142 0.572197 53.977278 14.781764 69.04514 3.719282 3.910015 7.915396 5.817339 13.065171 5.912706h0.095367c13.35127 0 22.220328-38.432585 24.032286-64.467562l12.206876 0.858296c-0.095366 0.76293-1.335127 18.310313-5.817339 36.239162-6.580269 26.130343-16.784454 39.481613-30.421823 39.481613z m-27.846935-87.164721l-6.103438-0.286099 6.103438 0.286099z" fill="" p-id="2435"></path><path d="M415.012558 447.988055c-7.629297 0-14.972496-4.577578-22.124962-13.637369-10.681016 10.013453-20.885201 13.828101-30.23109 11.253213-18.977877-5.149776-25.272047-34.045739-25.939611-37.28819-0.667564-3.337818 1.525859-6.484903 4.768311-7.152466 3.337818-0.667564 6.484903 1.430493 7.152466 4.76831 1.335127 6.389536 7.247832 25.272047 17.165919 27.942302 7.629297 2.098057 16.784454-6.008072 23.17399-13.065172 1.239761-1.430493 3.147085-2.193423 5.05441-2.00269 1.907324 0.190732 3.623916 1.144395 4.672944 2.76562 6.29417 9.82272 12.397608 14.781763 17.165919 14.1142 8.678326-1.239761 16.784454-18.882511 19.359342-27.274738 0.953662-3.242451 4.386846-5.054409 7.629297-4.100747 3.242451 0.953662 5.054409 4.386846 4.100748 7.629297-0.095366 0.286099-2.479522 8.010762-6.866368 16.116891-6.484903 11.920777-14.018834 18.501046-22.411061 19.740806-0.953662 0.190732-1.811958 0.190732-2.670254 0.190733z" fill="" p-id="2436"></path><path d="M388.023919 489.472359c-0.190732 0-0.381465 0-0.572197-0.095366-1.621226-0.381465-2.76562-1.907324-2.384156-3.623917 3.814649-18.596412 1.716592-40.339909 1.716592-40.530641-0.190732-1.716592 1.049028-3.147085 2.765621-3.337818 1.716592-0.190732 3.147085 1.049028 3.337817 2.76562 0.095366 0.953662 2.193423 22.887892-1.716592 42.437966-0.476831 1.430493-1.716592 2.384155-3.147085 2.384156z" fill="" p-id="2437"></path><path d="M411.484008 602.195226C225.043056 588.462491 289.70135 838.51271 289.70135 838.51271c37.574289 27.179372 62.369505-3.814649 68.091479-64.944393l83.540805-0.858296c7.915396 57.696561 36.04843 87.069355 64.467562 77.055902 20.40837-71.620028 51.40239-236.794315-94.317188-247.570697z" fill="#FEFEFE" p-id="2438"></path></svg>